{"accessors" : [{"bufferView" : 0, "byteOffset" : 0, "componentType" : 5123, "count" : 60, "type" : "SCALAR", "max" : [44], "min" : [0]}, {"bufferView" : 1, "byteOffset" : 0, "componentType" : 5126, "count" : 45, "type" : "VEC3", "max" : [25.436254501342773, 3.0885186195373535, 23.919218063354492], "min" : [-24.376415252685547, -3.991711378097534, -23.45545196533203], "name" : "POSITION"}, {"bufferView" : 1, "byteOffset" : 12, "componentType" : 5126, "count" : 45, "type" : "VEC2", "max" : [0.00021500275761354715, -0.999849796295166], "min" : [-0.02274550497531891, -1.102146863937378], "name" : "TEXCOORD_0"}, {"bufferView" : 1, "byteOffset" : 20, "componentType" : 5126, "count" : 45, "type" : "VEC3", "max" : [0.9510611891746521, 1.0000044107437134, 1.0000044107437134], "min" : [-0.9510606527328491, -1.0000044107437134, -1.0000044107437134], "name" : "NORMAL"}], "asset" : {"generator" : "Aspose.3D 22.5.1", "version" : "2.0"}, "buffers" : [{"uri" : "data:application/octet-stream;base64,", "byteLength" : 2048}], "bufferViews" : [{"buffer" : 0, "byteOffset" : 0, "byteLength" : 120, "target" : 34963}, {"buffer" : 0, "byteOffset" : 124, "byteLength" : 1920, "byteStride" : 32, "target" : 34962}], "materials" : [{"name" : "910826", "pbrMetallicRoughness" : {"baseColorFactor" : [0.56640625, 0.03125, 0.1484375, 1], "metallicFactor" : 0, "roughnessFactor" : 0}, "emissiveFactor" : [0, 0, 0], "alphaMode" : "OPAQUE", "doubleSided" : false}], "meshes" : [{"primitives" : [{"attributes" : {"POSITION" : 1, "TEXCOORD_0" : 2, "NORMAL" : 3}, "indices" : 0, "material" : 0, "mode" : 4}], "name" : ""}], "nodes" : [{"mesh" : 0, "name" : "Mesh_Mesh.015"}], "scene" : 0, "scenes" : [{"nodes" : [0]}]}